<?xml version="1.0" ?><svg viewBox="0 0 64 64" xmlns="http://www.w3.org/2000/svg"><path d="M62.022 12.276C57.27 1.37 47.892 1.434 40.252 2.402 32.608 3.37 29.59 9.565 29.59 9.565s-.9-.645-2.055-1.484c-1.156-.838-8.67-3.484-13.743-1.935C8.718 7.695 2.296 11.308.626 19.115c-1.67 7.81 0 13.94 5.01 19.038 5.008 5.098 13.357 9.357 19.78 13.487s8.155 11.035 8.155 11.035c.386.516 2.57.387 2.955-.194.385-.58 1.606-4.452 5.908-9.485 4.303-5.034 13.743-13.23 16.57-17.23 2.826-4 7.77-12.583 3.02-23.49zm-.835 14.39c-.064.195-4.88-5.033-5.138-5.226-.258-.194-.772.71-.772.903 0 .194 5.395 5.937 5.395 5.937s-1.284 2.517-1.734 2.646c-.45.13-4.56-5.614-4.818-5.873-.257-.258-.706.903-.706.903l4.945 6.002s-1.86 2.904-2.118 2.97c-.257.063-4.24-6.777-4.495-6.842-.257-.065-.835.516-.706.968.13.452 4.304 7.034 4.304 7.034s-1.606 2-1.798 2-3.66-6.775-3.853-7.033c-.193-.258-1.027.516-1.156.774-.128.257 3.725 6.97 3.982 7.356.256.387-1.478 1.742-1.928 1.936-.45.194-3.083-7.034-3.275-7.292-.193-.258-1.028.58-1.156 1.033-.127.452 3.47 7.1 3.47 7.1l-2.185 2.516-3.147-7.745s-1.413.645-1.477.84c-.063.193 3.276 7.68 3.276 7.68s-1.927 2.258-2.376 2.516c-.45.26-3.468-7.808-3.468-7.808l-1.156.903 3.596 8.067-2.312 2.58-3.725-7.68s-1.284.84-1.284 1.034c0 .194 3.726 7.68 3.79 7.938.064.258-1.35 1.55-1.67 1.742-.32.194-3.918-7.744-4.174-8.002-.257-.258-.77.645-.77.84 0 .193 3.917 8.582 3.917 8.582s-1.21 3.13-1.284 2.58c-.386-2.838-3.212-5.936-7.58-9.68-4.366-3.742-11.11-6.26-18.366-11.938-7.26-5.68-8.094-16.456-3.277-22.974C10.774 7.436 18.16 8.08 22.59 9.694s5.908 5.293 6.294 5.55c.385.26 2.57-.45 2.57-.45s0-.904.127-1.68c.13-.773 1.35-4.13 3.854-6C37.94 5.24 45.517 3.693 50.27 5.37c4.75 1.68 6.23 4.583 6.23 4.583s-1.863.774-2.12.84c-.257.064.32 1.096.32 1.096s2.12-.517 2.57-.453c.45.064.9 2.13.9 2.13l-3.212.258.128.645s.45 0 1.156.13c.706.128 3.147.903 3.147.903.64.71 1.027 4 1.027 4s-4.11-1.87-4.367-1.87-.385.967-.257 1.16c.128.195 4.495 2.324 5.01 2.905.513.58.448 4.775.384 4.97zm-47.46-11.81c-.45-.128-3.083-.063-5.587 4.325-2.505 4.39-1.092 7.293-1.092 7.293.963.774 2.184.13 2.184-.13 0-.257-.77-2.645.578-6 1.35-3.357 4.367-4.067 4.367-4.067s0-1.29-.45-1.42z"/></svg>